<svg width="16" height="16" viewBox="0 0 16 16" fill="none" xmlns="http://www.w3.org/2000/svg">
<path fill-rule="evenodd" clip-rule="evenodd" d="M10.5715 3.556C11.0448 3.556 11.4286 3.1581 11.4286 2.6672V1.77826C11.4286 1.28734 11.0448 0.88937 10.5715 0.88937H9.47942C9.17567 0.33933 8.61127 0 8.00001 0C7.38875 0 6.82435 0.33933 6.5206 0.88937H5.42854C4.95518 0.88937 4.57139 1.28734 4.57139 1.77826V2.6672C4.57139 3.1581 4.95518 3.556 5.42854 3.556H10.5715ZM12.2857 2.2222C12.2857 1.97676 12.4776 1.77778 12.7143 1.77778C13.424 1.77876 13.999 2.3751 14 3.1111V14.6667C13.999 15.4026 13.424 15.999 12.7143 16H3.2857C2.57599 15.999 2.00095 15.4026 2 14.6667V3.1111C2.00095 2.3751 2.57599 1.77876 3.2857 1.77778C3.52244 1.77778 3.71433 1.97676 3.71433 2.2222V2.6667C3.71568 3.6479 4.48238 4.443 5.42854 4.4444H10.5715C11.5176 4.443 12.2843 3.6479 12.2857 2.6667V2.2222ZM10.5715 6.6667C10.5715 6.4212 10.3796 6.2222 10.1428 6.2222H4.14286C3.90613 6.2222 3.71433 6.4212 3.71433 6.6667C3.71433 6.9121 3.90613 7.1111 4.14286 7.1111H10.1428C10.3796 7.1111 10.5715 6.9121 10.5715 6.6667ZM4.14286 8.8889H8.42854C8.66527 8.8889 8.85717 9.0879 8.85717 9.3333C8.85717 9.5788 8.66527 9.7778 8.42854 9.7778H4.14286C3.90613 9.7778 3.71433 9.5788 3.71433 9.3333C3.71433 9.0879 3.90613 8.8889 4.14286 8.8889ZM4.14286 12.4444H11.8572C12.0939 12.4444 12.2857 12.2455 12.2857 12C12.2857 11.7545 12.0939 11.5556 11.8572 11.5556H4.14286C3.90613 11.5556 3.71433 11.7545 3.71433 12C3.71433 12.2455 3.90613 12.4444 4.14286 12.4444ZM8.42854 1.77826H7.57148C7.33475 1.77826 7.14285 1.97725 7.14285 2.2227C7.14285 2.4682 7.33475 2.6671 7.57148 2.6671H8.42854C8.66527 2.6671 8.85717 2.4682 8.85717 2.2227C8.85717 1.97725 8.66527 1.77826 8.42854 1.77826Z" fill="white"/>
</svg>
