<svg version="1.1" id="Layer_1" xmlns="http://www.w3.org/2000/svg" xmlns:xlink="http://www.w3.org/1999/xlink" x="0px" y="0px"
	 width="100%" viewBox="0 0 88 87" enable-background="new 0 0 88 87" xml:space="preserve">
<path fill="#9D0BFF" opacity="1.000000" stroke="none" 
	d="
M1.000000,23.000000 
	C1.000000,23.000000 1.000000,22.500000 1.341777,22.119654 
	C6.233700,7.119896 13.185074,2.019401 28.528946,2.001919 
	C31.670986,1.998339 34.812923,1.904749 38.423470,1.909473 
	C48.274673,1.933413 57.657322,1.900528 67.431213,1.928852 
	C76.934898,3.085876 83.165237,8.013476 86.867874,16.307539 
	C87.568207,17.876324 88.288773,19.436077 89.000000,21.000000 
	C89.000000,21.750000 89.000000,22.500000 88.720200,23.935629 
	C88.313004,38.530464 88.174690,52.439610 88.098595,66.349098 
	C88.095589,66.897743 88.686058,67.449631 89.000000,68.000000 
	C89.000000,68.000000 89.000000,68.500000 88.677521,68.901016 
	C85.174057,79.296280 78.979881,85.871445 67.637360,87.098053 
	C60.334305,87.036850 53.503376,86.921951 46.677002,87.049911 
	C43.779751,87.104225 40.892044,87.667854 38.000000,88.000000 
	C32.311958,88.000000 26.623919,88.000000 20.345612,87.665787 
	C9.012526,83.743248 2.654869,76.619896 1.878210,64.592682 
	C1.968972,51.762074 2.013362,39.398251 1.952501,27.034945 
	C1.945873,25.688433 1.332138,24.344910 1.000000,23.000000 
M22.824768,38.986805 
	C37.282948,39.148582 51.741577,39.435783 66.198982,39.383324 
	C69.781616,39.370323 72.017151,36.864574 71.982185,33.132374 
	C71.945023,29.165199 69.530357,26.785372 65.727562,26.737553 
	C52.259403,26.568195 38.782032,26.495342 25.323277,26.895111 
	C23.289444,26.955523 20.095444,29.440510 19.671576,31.310299 
	C19.184406,33.459328 21.182161,36.171669 22.824768,38.986805 
M19.125694,59.190063 
	C20.106865,63.351677 23.031492,64.598511 26.952648,64.584709 
	C39.270901,64.541389 51.589596,64.609398 63.907715,64.549934 
	C69.086044,64.524940 71.860657,62.331078 72.031792,58.427975 
	C72.203560,54.510727 69.482971,51.643509 64.536552,51.564491 
	C51.889835,51.362457 39.236870,51.416012 26.588215,51.545208 
	C22.261257,51.589405 19.266939,53.612606 19.125694,59.190063 
z"/>
<path fill="#FDFAFF" opacity="1.000000" stroke="none" 
	d="
M37.954910,1.852649 
	C34.812923,1.904749 31.670986,1.998339 28.528946,2.001919 
	C13.185074,2.019401 6.233700,7.119896 1.341777,21.869654 
	C1.000000,15.053240 1.000000,8.106480 1.000000,1.000000 
	C13.020506,1.000000 25.041595,1.000000 37.525116,1.213429 
	C37.987549,1.426859 37.954910,1.852649 37.954910,1.852649 
z"/>
<path fill="#FDF9FF" opacity="1.000000" stroke="none" 
	d="
M89.000000,20.530956 
	C88.288773,19.436077 87.568207,17.876324 86.867874,16.307539 
	C83.165237,8.013476 76.934898,3.085876 67.411270,1.712399 
	C67.000092,1.434739 67.000000,1.000000 67.000000,1.000000 
	C74.255920,1.000000 81.511841,1.000000 89.000000,1.000000 
	C89.000000,7.352096 89.000000,13.707006 89.000000,20.530956 
z"/>
<path fill="#FDFAFF" opacity="1.000000" stroke="none" 
	d="
M1.801167,65.059624 
	C2.654869,76.619896 9.012526,83.743248 19.877670,87.665787 
	C13.733430,88.000000 7.466860,88.000000 1.000000,88.000000 
	C1.000000,80.646721 1.000000,73.292099 1.197737,65.517975 
	C1.395473,65.098480 1.801167,65.059624 1.801167,65.059624 
z"/>
<path fill="#FDFAFF" opacity="1.000000" stroke="none" 
	d="
M68.111328,87.142609 
	C78.979881,85.871445 85.174057,79.296280 88.677521,69.151016 
	C89.000000,75.263138 89.000000,81.526268 89.000000,88.000000 
	C82.314072,88.000000 75.625946,88.000000 68.494835,87.785400 
	C68.051849,87.570808 68.111328,87.142609 68.111328,87.142609 
z"/>
<path fill="#C368FF" opacity="1.000000" stroke="none" 
	d="
M89.000000,67.531342 
	C88.686058,67.449631 88.095589,66.897743 88.098595,66.349098 
	C88.174690,52.439610 88.313004,38.530464 88.720200,24.310629 
	C89.000000,38.354229 89.000000,52.708454 89.000000,67.531342 
z"/>
<path fill="#E6C2FF" opacity="1.000000" stroke="none" 
	d="
M1.878210,64.592682 
	C1.801167,65.059624 1.395473,65.098480 1.197737,65.049240 
	C1.000000,51.312439 1.000000,37.624878 1.000000,23.468658 
	C1.332138,24.344910 1.945873,25.688433 1.952501,27.034945 
	C2.013362,39.398251 1.968972,51.762074 1.878210,64.592682 
z"/>
<path fill="#CE84FF" opacity="1.000000" stroke="none" 
	d="
M67.637360,87.098053 
	C68.111328,87.142609 68.051849,87.570808 68.025925,87.785400 
	C58.312439,88.000000 48.624878,88.000000 38.468658,88.000000 
	C40.892044,87.667854 43.779751,87.104225 46.677002,87.049911 
	C53.503376,86.921951 60.334305,87.036850 67.637360,87.098053 
z"/>
<path fill="#E6C3FF" opacity="1.000000" stroke="none" 
	d="
M66.531342,1.000000 
	C67.000000,1.000000 67.000092,1.434739 67.020035,1.651191 
	C57.657322,1.900528 48.274673,1.933413 38.423470,1.909473 
	C37.954910,1.852649 37.987549,1.426859 37.993774,1.213429 
	C47.354229,1.000000 56.708454,1.000000 66.531342,1.000000 
z"/>
<path fill="#F9EFFF" opacity="1.000000" stroke="none" 
	d="
M22.462669,38.813068 
	C21.182161,36.171669 19.184406,33.459328 19.671576,31.310299 
	C20.095444,29.440510 23.289444,26.955523 25.323277,26.895111 
	C38.782032,26.495342 52.259403,26.568195 65.727562,26.737553 
	C69.530357,26.785372 71.945023,29.165199 71.982185,33.132374 
	C72.017151,36.864574 69.781616,39.370323 66.198982,39.383324 
	C51.741577,39.435783 37.282948,39.148582 22.462669,38.813068 
z"/>
<path fill="#F9EFFF" opacity="1.000000" stroke="none" 
	d="
M19.079689,58.801807 
	C19.266939,53.612606 22.261257,51.589405 26.588215,51.545208 
	C39.236870,51.416012 51.889835,51.362457 64.536552,51.564491 
	C69.482971,51.643509 72.203560,54.510727 72.031792,58.427975 
	C71.860657,62.331078 69.086044,64.524940 63.907715,64.549934 
	C51.589596,64.609398 39.270901,64.541389 26.952648,64.584709 
	C23.031492,64.598511 20.106865,63.351677 19.079689,58.801807 
z"/>
</svg>