<svg width="398" height="91" viewBox="0 0 398 91" fill="none" xmlns="http://www.w3.org/2000/svg">
<rect width="85.755" height="86.8562" rx="23" transform="matrix(0.00392948 0.999992 -0.999991 0.00420664 86.8554 0)" fill="#9D0AFF"/>
<path d="M17.3969 31.5C17.3969 27.9101 20.3071 25 23.8969 25H64.0541C67.644 25 70.5541 27.9101 70.5541 31.5V31.5C70.5541 35.0899 67.644 38 64.0541 38H23.8969C20.3071 38 17.3969 35.0899 17.3969 31.5V31.5Z" fill="white"/>
<rect x="17.3969" y="50" width="53.1572" height="13" rx="6.5" fill="white"/>
<g filter="url(#filter0_i_3_8)">
<path d="M145.613 51.407C145.613 53.0677 145.224 54.4987 144.447 55.7C143.705 56.866 142.468 57.9437 140.737 58.933C139.571 59.6397 138.211 60.1697 136.656 60.523C135.101 60.8763 133.529 61.053 131.939 61.053C130.314 61.053 128.3 60.523 125.897 59.463C124.166 58.615 122.788 57.608 121.763 56.442C120.774 55.276 120.279 54.004 120.279 52.626C120.279 51.672 120.491 50.983 120.915 50.559C121.339 50.0997 122.028 49.87 122.982 49.87C123.477 49.87 123.989 50.082 124.519 50.506C125.049 50.8947 125.367 51.2833 125.473 51.672C125.968 53.1207 126.833 54.2337 128.07 55.011C129.307 55.753 130.844 56.124 132.681 56.124C134.801 56.124 136.568 55.7353 137.981 54.958C139.43 54.1807 140.154 53.1383 140.154 51.831C140.154 50.559 139.377 49.4283 137.822 48.439C136.267 47.4497 134.677 46.7607 133.052 46.372C130.72 45.736 128.653 44.9763 126.851 44.093C124.978 43.1743 123.583 42.0437 122.664 40.701C121.745 39.3583 121.286 37.945 121.286 36.461C121.286 35.083 121.763 33.6873 122.717 32.274C123.671 30.8253 124.802 29.783 126.109 29.147C126.816 28.7937 128.017 28.4227 129.713 28.034C131.444 27.61 132.699 27.398 133.476 27.398C134.501 27.398 135.631 27.5217 136.868 27.769C138.105 28.0163 139.112 28.3697 139.889 28.829C141.444 29.7123 142.592 30.5073 143.334 31.214C144.076 31.9207 144.447 32.804 144.447 33.864C144.447 34.5 144.2 35.0653 143.705 35.56C143.246 36.0547 142.433 36.302 141.267 36.302C140.984 36.302 140.702 36.1783 140.419 35.931C140.136 35.6837 139.783 35.3127 139.359 34.818C138.794 34.076 138.246 33.5813 137.716 33.334C137.186 33.1573 136.409 32.963 135.384 32.751C134.395 32.539 133.511 32.433 132.734 32.433C131.886 32.433 131.003 32.6097 130.084 32.963C129.165 33.3163 128.388 33.8287 127.752 34.5C127.151 35.136 126.851 35.878 126.851 36.726C126.851 37.4327 127.169 38.051 127.805 38.581C128.476 39.0757 129.271 39.482 130.19 39.8C131.25 40.224 132.398 40.595 133.635 40.913C135.26 41.4077 136.585 41.867 137.61 42.291C138.67 42.6797 139.695 43.1743 140.684 43.775C142.415 44.7997 143.67 45.8597 144.447 46.955C145.224 48.015 145.613 49.499 145.613 51.407ZM171.558 43.987C171.84 44.4817 172.07 45.206 172.247 46.16C172.423 47.0787 172.512 47.909 172.512 48.651C172.512 50.029 172.211 51.99 171.611 54.534C169.173 58.986 165.569 61.212 160.799 61.212C159.032 61.212 157.23 60.629 155.393 59.463C153.555 58.297 152.283 56.9543 151.577 55.435C150.623 52.3963 150.146 50.4707 150.146 49.658C150.146 48.2447 150.446 46.743 151.047 45.153C151.683 43.563 152.478 42.185 153.432 41.019C154.032 40.2063 155.11 39.5173 156.665 38.952C158.219 38.3513 159.633 38.051 160.905 38.051C163.378 38.051 165.48 38.528 167.212 39.482C168.943 40.4007 170.392 41.9023 171.558 43.987ZM166.947 52.52C167.123 52.0607 167.212 50.877 167.212 48.969C167.212 47.9443 167.017 46.9373 166.629 45.948C166.275 44.9587 165.745 44.1107 165.039 43.404C164.968 43.3333 164.774 43.2273 164.456 43.086C164.138 42.9093 163.696 42.7503 163.131 42.609C162.601 42.4323 161.982 42.344 161.276 42.344C159.297 42.344 157.848 43.139 156.93 44.729C156.011 46.319 155.552 48.121 155.552 50.135C155.552 50.4883 155.64 51.1597 155.817 52.149C156.029 53.1383 156.205 53.7567 156.347 54.004C156.453 54.2513 156.718 54.6047 157.142 55.064C157.601 55.488 158.149 55.8767 158.785 56.23C159.456 56.548 160.145 56.707 160.852 56.707C162.442 56.707 163.714 56.336 164.668 55.594C165.622 54.8167 166.381 53.792 166.947 52.52ZM196.506 43.298C196.506 44.8527 195.711 45.63 194.121 45.63C193.591 45.63 193.149 45.5063 192.796 45.259C192.443 45.0117 192.054 44.6407 191.63 44.146C190.57 42.98 189.651 42.397 188.874 42.397C187.849 42.397 186.842 42.6973 185.853 43.298C184.899 43.8987 184.122 44.7467 183.521 45.842C182.92 46.9373 182.62 48.1563 182.62 49.499C182.62 50.983 182.903 52.2197 183.468 53.209C184.069 54.1983 184.987 55.0463 186.224 55.753C186.683 56.0003 187.213 56.1947 187.814 56.336C188.45 56.4773 188.998 56.548 189.457 56.548C190.482 56.548 191.771 56.1417 193.326 55.329C193.891 55.0463 194.368 54.8343 194.757 54.693C195.146 54.5517 195.552 54.481 195.976 54.481C196.365 54.481 196.806 54.6577 197.301 55.011C197.796 55.3643 198.043 55.806 198.043 56.336C198.043 57.396 197.548 58.297 196.559 59.039C195.57 59.7457 194.351 60.2933 192.902 60.682C191.489 61.0353 190.128 61.212 188.821 61.212C186.736 61.212 184.793 60.735 182.991 59.781C181.224 58.827 179.811 57.5197 178.751 55.859C177.691 54.163 177.161 52.255 177.161 50.135C177.161 47.8737 177.673 45.8067 178.698 43.934C179.723 42.0613 181.101 40.595 182.832 39.535C184.563 38.475 186.454 37.945 188.503 37.945C189.669 37.945 190.87 38.157 192.107 38.581C193.344 39.005 194.386 39.6233 195.234 40.436C196.082 41.2487 196.506 42.2027 196.506 43.298ZM205.238 26.974C206.474 27.08 207.552 27.4157 208.471 27.981C209.389 28.511 209.849 29.3237 209.849 30.419C209.849 31.2317 209.46 31.8853 208.683 32.38C207.941 32.8393 207.04 33.069 205.98 33.069C204.955 33.069 204.248 32.804 203.86 32.274C203.471 31.744 203.277 31.1963 203.277 30.631C203.277 29.571 203.383 28.6877 203.595 27.981C203.842 27.2743 204.39 26.9387 205.238 26.974ZM209.478 50.453V51.99C209.478 53.368 209.513 54.6753 209.584 55.912C209.69 57.1133 209.813 58.3323 209.955 59.569C209.955 59.993 209.707 60.3817 209.213 60.735C208.718 61.053 208.259 61.212 207.835 61.212C207.163 61.212 206.474 61.0883 205.768 60.841C205.096 60.5583 204.69 60.2227 204.549 59.834C204.337 58.7033 204.231 57.6963 204.231 56.813C204.231 53.9157 204.142 50.665 203.966 47.061C203.824 43.881 203.754 41.655 203.754 40.383C203.754 39.747 204.072 39.1993 204.708 38.74C205.344 38.2807 206.015 38.051 206.722 38.051C207.746 38.051 208.453 38.2807 208.842 38.74C209.266 39.1993 209.478 39.9237 209.478 40.913V50.453ZM240.157 58.456C240.157 59.2333 239.733 59.887 238.885 60.417C238.037 60.947 237.26 61.212 236.553 61.212C235.246 61.212 234.186 61.053 233.373 60.735C232.596 60.3817 231.854 59.7457 231.147 58.827C230.264 59.6397 229.027 60.258 227.437 60.682C225.847 61.0707 224.381 61.265 223.038 61.265C220.847 61.265 219.028 60.682 217.579 59.516C216.166 58.3147 215.459 56.5657 215.459 54.269C215.459 53.2797 215.759 52.2903 216.36 51.301C216.961 50.2763 217.703 49.4637 218.586 48.863C219.54 48.227 220.618 47.803 221.819 47.591C223.02 47.3437 224.416 47.22 226.006 47.22C226.748 47.22 227.631 47.3613 228.656 47.644C229.681 47.9267 230.493 48.227 231.094 48.545V47.697C231.094 45.789 230.617 44.4817 229.663 43.775C228.744 43.033 227.26 42.662 225.211 42.662C224.575 42.662 223.992 42.768 223.462 42.98C222.967 43.1567 222.384 43.4217 221.713 43.775C221.077 44.1283 220.476 44.305 219.911 44.305C219.416 44.305 218.939 44.1107 218.48 43.722C218.021 43.298 217.791 42.8563 217.791 42.397C217.791 40.913 218.71 39.8353 220.547 39.164C222.42 38.4573 224.328 38.104 226.271 38.104C227.26 38.104 228.391 38.316 229.663 38.74C230.935 39.1287 232.013 39.6763 232.896 40.383C233.956 41.2663 234.769 42.3263 235.334 43.563C235.935 44.7997 236.235 46.1423 236.235 47.591C236.235 48.0503 236.2 48.7393 236.129 49.658C236.058 50.6473 236.023 51.4953 236.023 52.202L235.97 53.633C235.899 54.4103 235.864 55.0287 235.864 55.488C235.864 55.912 236.005 56.283 236.288 56.601C236.606 56.8837 236.977 57.025 237.401 57.025L238.885 56.972C239.274 56.972 239.574 57.131 239.786 57.449C240.033 57.7317 240.157 58.0673 240.157 58.456ZM223.038 57.078C224.557 57.078 225.829 56.919 226.854 56.601C227.879 56.283 229.115 55.7 230.564 54.852C230.705 54.2513 230.794 53.4563 230.829 52.467C228.886 51.5483 227.278 51.089 226.006 51.089C224.805 51.089 223.833 51.142 223.091 51.248C222.349 51.3187 221.678 51.619 221.077 52.149C220.476 52.679 220.176 53.527 220.176 54.693C220.176 55.3643 220.494 55.9297 221.13 56.389C221.801 56.8483 222.437 57.078 223.038 57.078ZM249.515 52.785C249.515 54.1277 249.709 55.17 250.098 55.912C250.522 56.6187 251.052 56.972 251.688 56.972C252.041 56.972 252.377 56.9543 252.695 56.919C253.013 56.8483 253.331 56.813 253.649 56.813C254.002 56.813 254.302 56.9897 254.55 57.343C254.832 57.6963 254.974 58.085 254.974 58.509C254.974 59.357 254.567 60.0283 253.755 60.523C252.977 60.9823 251.917 61.212 250.575 61.212C249.621 61.212 248.649 60.9293 247.66 60.364C246.706 59.7633 245.911 58.8447 245.275 57.608C244.639 56.336 244.321 54.7637 244.321 52.891C244.321 48.863 244.391 45.4533 244.533 42.662C244.709 39.3407 244.798 35.1537 244.798 30.101C244.798 28.511 244.886 27.398 245.063 26.762C245.275 26.2673 245.61 25.8963 246.07 25.649C246.564 25.3663 247.077 25.225 247.607 25.225C248.137 25.225 248.596 25.3133 248.985 25.49C249.409 25.6667 249.691 25.9493 249.833 26.338C249.974 26.762 250.062 27.186 250.098 27.61C250.168 27.9987 250.204 28.564 250.204 29.306C250.204 30.7547 250.151 32.1503 250.045 33.493C249.974 35.1183 249.939 36.302 249.939 37.044C249.656 43.2627 249.515 48.5097 249.515 52.785ZM262.298 27.345C262.97 27.345 263.57 27.5217 264.1 27.875C264.666 28.2283 265.001 28.8467 265.107 29.73C265.531 32.5213 265.796 35.3127 265.902 38.104C266.044 40.86 266.114 43.987 266.114 47.485C266.114 48.969 265.991 51.672 265.743 55.594C267.298 55.7353 268.499 55.806 269.347 55.806C269.948 55.806 271.308 55.7177 273.428 55.541C274.665 55.3643 275.743 55.276 276.661 55.276C277.509 55.276 278.287 55.3643 278.993 55.541C279.7 55.6823 280.424 55.9297 281.166 56.283C281.908 56.707 282.279 57.3607 282.279 58.244C282.279 58.9507 282.05 59.5867 281.59 60.152C281.166 60.7173 280.654 61 280.053 61C279.629 61 278.958 60.9293 278.039 60.788C276.379 60.5407 274.789 60.417 273.269 60.417C272.775 60.417 272.209 60.4523 271.573 60.523C270.973 60.5583 270.531 60.576 270.248 60.576C269.4 60.682 268.552 60.735 267.704 60.735C265.973 60.735 264.418 60.6467 263.04 60.47C262.334 60.3993 261.627 60.1343 260.92 59.675C260.214 59.1803 259.86 58.4737 259.86 57.555C259.86 57.025 259.931 55.6647 260.072 53.474C260.32 49.8347 260.443 47.061 260.443 45.153C260.443 43.669 260.373 42.1143 260.231 40.489C260.09 38.8637 260.002 37.839 259.966 37.415C259.648 34.4117 259.489 31.9383 259.489 29.995C259.489 29.0763 259.701 28.405 260.125 27.981C260.585 27.557 261.309 27.345 262.298 27.345ZM284.923 49.764C284.923 48.4213 285.17 47.0787 285.665 45.736C286.16 44.358 286.813 43.1037 287.626 41.973C288.439 40.8423 289.728 39.9237 291.495 39.217C293.262 38.475 294.834 38.104 296.212 38.104C297.625 38.104 299.056 38.2983 300.505 38.687C301.989 39.0757 303.014 39.6763 303.579 40.489C304.886 42.3263 305.54 44.1283 305.54 45.895C305.54 46.849 305.328 47.6617 304.904 48.333C304.515 49.0043 303.95 49.7287 303.208 50.506C302.607 51.142 301.653 51.566 300.346 51.778C299.074 51.99 297.802 52.096 296.53 52.096C295.717 52.096 294.728 52.0253 293.562 51.884C292.396 51.7073 291.265 51.4953 290.17 51.248C290.241 51.9547 290.417 52.6437 290.7 53.315C290.983 53.9863 291.318 54.4987 291.707 54.852C292.414 55.5233 293.138 55.9473 293.88 56.124C294.657 56.3007 295.647 56.389 296.848 56.389C298.12 56.389 299.304 56.177 300.399 55.753C301.282 55.435 302.007 55.276 302.572 55.276C303.243 55.276 303.756 55.488 304.109 55.912C304.462 56.3007 304.639 56.813 304.639 57.449C304.639 58.3323 304.127 59.0567 303.102 59.622C302.077 60.1873 300.894 60.6113 299.551 60.894C298.244 61.1413 297.184 61.265 296.371 61.265C294.71 61.265 293.103 60.9647 291.548 60.364C289.993 59.7633 288.704 58.9153 287.679 57.82C286.831 56.8307 286.16 55.647 285.665 54.269C285.17 52.8557 284.923 51.354 284.923 49.764ZM296.477 42.609C295.7 42.609 294.922 42.768 294.145 43.086C293.368 43.3687 292.732 43.775 292.237 44.305C291.601 44.9763 291.159 45.524 290.912 45.948C290.7 46.3367 290.559 46.8843 290.488 47.591C291.371 47.8737 293.209 48.015 296 48.015C297.519 48.015 298.685 47.7853 299.498 47.326C300.346 46.8667 300.77 46.266 300.77 45.524C300.77 44.782 300.311 44.1107 299.392 43.51C298.473 42.9093 297.502 42.609 296.477 42.609ZM330.745 61.212C329.544 61.212 328.625 61.0353 327.989 60.682C327.353 60.2933 326.664 59.5867 325.922 58.562C325.003 59.3747 323.625 60.0283 321.788 60.523C319.986 61.0177 318.431 61.265 317.124 61.265C314.969 61.265 313.22 60.682 311.877 59.516C310.57 58.3147 309.916 56.5657 309.916 54.269C309.916 53.2797 310.181 52.3787 310.711 51.566C311.276 50.718 312.001 49.976 312.884 49.34C313.873 48.6687 315.039 48.1387 316.382 47.75C317.76 47.3613 319.014 47.167 320.145 47.167C322.053 47.167 323.749 47.3437 325.233 47.697V47.644C325.233 45.736 324.756 44.4287 323.802 43.722C322.883 42.98 321.399 42.609 319.35 42.609C318.043 42.609 316.912 43.192 315.958 44.358C315.605 44.8173 314.863 45.047 313.732 45.047C313.167 45.047 312.743 44.8173 312.46 44.358C312.213 43.8633 312.089 43.3687 312.089 42.874C312.089 41.8493 312.513 40.966 313.361 40.224C314.244 39.482 315.304 38.9343 316.541 38.581C317.778 38.1923 318.926 37.998 319.986 37.998C321.011 37.998 322.23 38.21 323.643 38.634C325.056 39.058 326.205 39.6233 327.088 40.33C328.148 41.2487 328.961 42.3263 329.526 43.563C330.127 44.7643 330.427 46.0893 330.427 47.538C330.427 47.9973 330.392 48.6863 330.321 49.605C330.25 50.665 330.215 51.5307 330.215 52.202C330.215 52.52 330.18 52.9263 330.109 53.421C330.038 54.057 330.003 54.587 330.003 55.011C330.003 55.4703 330.144 55.912 330.427 56.336C330.71 56.76 331.098 57.1133 331.593 57.396C332.052 57.6433 332.353 57.9083 332.494 58.191C332.635 58.4737 332.706 58.7917 332.706 59.145C332.706 59.4983 332.476 59.94 332.017 60.47C331.593 60.9647 331.169 61.212 330.745 61.212ZM320.145 51.089C318.767 51.089 317.548 51.354 316.488 51.884C315.428 52.414 314.898 53.3503 314.898 54.693C314.898 55.3643 315.128 55.9297 315.587 56.389C316.082 56.8483 316.612 57.078 317.177 57.078C318.696 57.078 319.968 56.919 320.993 56.601C322.018 56.283 323.254 55.7 324.703 54.852C324.88 54.2867 324.986 53.4917 325.021 52.467C325.021 52.0783 325.039 51.778 325.074 51.566C323.166 51.248 321.523 51.089 320.145 51.089ZM357.838 27.822C357.838 28.1753 357.785 28.617 357.679 29.147C357.644 29.359 357.608 29.5887 357.573 29.836C357.538 30.0833 357.502 30.3837 357.467 30.737C357.149 33.917 356.99 37.8567 356.99 42.556C356.99 47.008 357.184 50.3117 357.573 52.467C357.962 54.6223 358.562 55.912 359.375 56.336L360.382 56.76C360.912 56.9367 361.301 57.131 361.548 57.343C361.831 57.555 361.972 57.9083 361.972 58.403C361.972 59.1097 361.601 59.728 360.859 60.258C360.117 60.7527 359.304 61 358.421 61C357.502 61 356.601 60.629 355.718 59.887C354.835 59.1097 354.11 58.138 353.545 56.972C352.944 58.244 351.884 59.2687 350.365 60.046C348.846 60.788 347.397 61.159 346.019 61.159C344.782 61.159 343.705 61 342.786 60.682C341.867 60.3287 340.913 59.7987 339.924 59.092C338.723 58.244 337.804 57.1663 337.168 55.859C336.567 54.5517 336.267 53.1207 336.267 51.566C336.267 50.0113 336.567 48.3683 337.168 46.637C337.769 44.8703 338.458 43.4217 339.235 42.291C340.154 40.9837 341.373 40.012 342.892 39.376C344.411 38.7047 345.984 38.369 347.609 38.369C348.528 38.369 349.323 38.5457 349.994 38.899C350.665 39.217 351.354 39.6763 352.061 40.277C352.061 38.5103 352.026 37.0263 351.955 35.825C351.92 35.507 351.902 35.136 351.902 34.712C351.902 31.6733 352.149 29.2707 352.644 27.504C353.033 26.02 353.969 25.278 355.453 25.278C356.266 25.278 356.866 25.4547 357.255 25.808C357.644 26.1613 357.838 26.8327 357.838 27.822ZM341.408 51.46C341.408 53.262 341.991 54.64 343.157 55.594C343.687 56.0887 344.129 56.4243 344.482 56.601C344.835 56.7777 345.277 56.866 345.807 56.866C346.832 56.866 347.803 56.5833 348.722 56.018C349.676 55.4173 350.418 54.64 350.948 53.686C351.513 52.732 351.796 51.7073 351.796 50.612L351.743 45.365C351.001 44.517 350.312 43.934 349.676 43.616C349.075 43.2627 348.439 43.086 347.768 43.086C345.507 43.086 343.952 43.9517 343.104 45.683C342.645 46.4957 342.238 47.4143 341.885 48.439C341.567 49.4637 341.408 50.4707 341.408 51.46Z" fill="black"/>
</g>
<defs>
<filter id="filter0_i_3_8" x="120.279" y="25.225" width="241.693" height="40.04" filterUnits="userSpaceOnUse" color-interpolation-filters="sRGB">
<feFlood flood-opacity="0" result="BackgroundImageFix"/>
<feBlend mode="normal" in="SourceGraphic" in2="BackgroundImageFix" result="shape"/>
<feColorMatrix in="SourceAlpha" type="matrix" values="0 0 0 0 0 0 0 0 0 0 0 0 0 0 0 0 0 0 127 0" result="hardAlpha"/>
<feOffset dy="4"/>
<feGaussianBlur stdDeviation="2"/>
<feComposite in2="hardAlpha" operator="arithmetic" k2="-1" k3="1"/>
<feColorMatrix type="matrix" values="0 0 0 0 0 0 0 0 0 0 0 0 0 0 0 0 0 0 0.25 0"/>
<feBlend mode="normal" in2="shape" result="effect1_innerShadow_3_8"/>
</filter>
</defs>
</svg>
