<svg width="16" height="16" viewBox="0 0 16 16" fill="none" xmlns="http://www.w3.org/2000/svg">
<path d="M15.645 2.28571C15.3679 1.90651 14.9523 1.68532 14.5182 1.68532H13.1697V0.842658C13.1697 0.379197 12.8372 0 12.4308 0H3.56389C3.15749 0 2.82498 0.379197 2.82498 0.842658V1.68532H1.47647C1.04236 1.68532 0.626725 1.90651 0.349633 2.28571C0.0725422 2.66491 -0.0475324 3.15998 0.017124 3.65505L0.15567 4.61353C0.469703 6.67807 1.93829 8.21591 3.74862 8.4055C4.53371 9.6906 5.75288 10.607 7.15685 10.8703C6.8705 11.892 6.02997 12.6399 5.0417 12.6399C4.99554 12.6399 4.94932 12.6504 4.90316 12.6504C4.85699 12.6399 4.81077 12.6399 4.76461 12.6399C4.2012 12.6399 3.6932 12.998 3.44382 13.5668L2.9081 14.7887C2.72338 15.21 2.87116 15.7156 3.24061 15.9158C3.34222 15.979 3.46229 16 3.57312 16C3.84098 16 4.10883 15.8314 4.23814 15.5366L4.77386 14.3147C4.82003 14.3147 4.86619 14.3042 4.91241 14.3042C4.95857 14.3147 5.00474 14.3147 5.05096 14.3147C6.2609 14.3147 7.3323 13.6511 8.00658 12.6294C8.68085 13.6511 9.75225 14.3147 10.9622 14.3147C11.0084 14.3147 11.0546 14.3042 11.1007 14.3042C11.147 14.3147 11.1931 14.3147 11.2393 14.3147L11.775 15.5366C11.9043 15.8314 12.1629 16 12.44 16C12.5509 16 12.6617 15.9684 12.7725 15.9158C13.142 15.705 13.2898 15.1995 13.1051 14.7887L12.5693 13.5668C12.3199 12.9875 11.812 12.6399 11.2485 12.6399C11.2024 12.6399 11.1562 12.6504 11.11 12.6504C11.0638 12.6399 11.0176 12.6399 10.9715 12.6399C9.98318 12.6399 9.14265 11.892 8.8563 10.8703C10.2695 10.607 11.4887 9.6906 12.2645 8.4055C14.0656 8.21591 15.5435 6.67807 15.8483 4.60304L15.9868 3.6445C16.0422 3.15998 15.9221 2.66491 15.645 2.28571ZM1.62425 4.32913L1.47647 3.37065H2.82498V5.05593C2.82498 5.52993 2.87116 5.98288 2.96352 6.42527C2.2708 6.02503 1.75356 5.26664 1.62425 4.32913ZM7.99732 9.26925C5.9561 9.26925 4.3028 7.38382 4.3028 5.05593V1.68532H11.6919V5.05593C11.6919 7.38382 10.0386 9.26925 7.99732 9.26925ZM14.3704 4.32913C14.2319 5.26664 13.7239 6.02503 13.0219 6.42527C13.1143 5.98288 13.1605 5.52993 13.1605 5.05593V3.37065H14.509L14.3704 4.32913Z" fill="white"/>
</svg>